<svg id="visual" viewBox="0 0 900 600" width="900" height="600" xmlns="http://www.w3.org/2000/svg" xmlns:xlink="http://www.w3.org/1999/xlink" version="1.1"><g stroke-width="1" stroke-linejoin="bevel"><path d="M473.6 274.7L495.6 321.3L539.8 260.7Z" fill="#bdcacd" stroke="#bdcacd"></path><path d="M495.6 321.3L550.8 344.3L539.8 260.7Z" fill="#595d5f" stroke="#595d5f"></path><path d="M612.1 268.7L543.8 214L539.8 260.7Z" fill="#474a4a" stroke="#474a4a"></path><path d="M539.8 260.7L543.8 214L473.6 274.7Z" fill="#252525" stroke="#252525"></path><path d="M424.4 202L420.4 262.7L473.6 274.7Z" fill="#7f8789" stroke="#7f8789"></path><path d="M473.6 274.7L428.4 340.3L495.6 321.3Z" fill="#7f8789" stroke="#7f8789"></path><path d="M420.4 262.7L428.4 340.3L473.6 274.7Z" fill="#6c7273" stroke="#6c7273"></path><path d="M495.6 321.3L492.6 406L550.8 344.3Z" fill="#474a4a" stroke="#474a4a"></path><path d="M617.1 320.3L612.1 268.7L539.8 260.7Z" fill="#363737" stroke="#363737"></path><path d="M543.8 214L471.6 187L473.6 274.7Z" fill="#7f8789" stroke="#7f8789"></path><path d="M550.8 344.3L617.1 320.3L539.8 260.7Z" fill="#e8f9fd" stroke="#e8f9fd"></path><path d="M471.6 187L424.4 202L473.6 274.7Z" fill="#e8f9fd" stroke="#e8f9fd"></path><path d="M428.4 340.3L492.6 406L495.6 321.3Z" fill="#939d9f" stroke="#939d9f"></path><path d="M550.8 344.3L609.1 387L617.1 320.3Z" fill="#6c7273" stroke="#6c7273"></path><path d="M492.6 406L560.8 403L550.8 344.3Z" fill="#e8f9fd" stroke="#e8f9fd"></path><path d="M701.3 252.7L622.1 210L612.1 268.7Z" fill="#d2e1e5" stroke="#d2e1e5"></path><path d="M612.1 268.7L622.1 210L543.8 214Z" fill="#d2e1e5" stroke="#d2e1e5"></path><path d="M543.8 214L485.6 123.3L471.6 187Z" fill="#6c7273" stroke="#6c7273"></path><path d="M560.8 403L609.1 387L550.8 344.3Z" fill="#939d9f" stroke="#939d9f"></path><path d="M352.2 398L422.4 402L428.4 340.3Z" fill="#595d5f" stroke="#595d5f"></path><path d="M428.4 340.3L422.4 402L492.6 406Z" fill="#595d5f" stroke="#595d5f"></path><path d="M333.2 279.7L352.2 320.3L420.4 262.7Z" fill="#e8f9fd" stroke="#e8f9fd"></path><path d="M420.4 262.7L352.2 320.3L428.4 340.3Z" fill="#a8b3b6" stroke="#a8b3b6"></path><path d="M567.8 128.3L485.6 123.3L543.8 214Z" fill="#474a4a" stroke="#474a4a"></path><path d="M471.6 187L415.4 124.3L424.4 202Z" fill="#a8b3b6" stroke="#a8b3b6"></path><path d="M622.1 210L567.8 128.3L543.8 214Z" fill="#363737" stroke="#363737"></path><path d="M332.2 186L420.4 262.7L424.4 202Z" fill="#252525" stroke="#252525"></path><path d="M332.2 186L333.2 279.7L420.4 262.7Z" fill="#595d5f" stroke="#595d5f"></path><path d="M682.3 393L689.3 319.3L617.1 320.3Z" fill="#e8f9fd" stroke="#e8f9fd"></path><path d="M617.1 320.3L689.3 319.3L612.1 268.7Z" fill="#595d5f" stroke="#595d5f"></path><path d="M492.6 406L560.8 460.7L560.8 403Z" fill="#a8b3b6" stroke="#a8b3b6"></path><path d="M560.8 403L625.1 458.7L609.1 387Z" fill="#6c7273" stroke="#6c7273"></path><path d="M609.1 387L682.3 393L617.1 320.3Z" fill="#e8f9fd" stroke="#e8f9fd"></path><path d="M493.6 468.7L560.8 460.7L492.6 406Z" fill="#939d9f" stroke="#939d9f"></path><path d="M422.4 402L493.6 468.7L492.6 406Z" fill="#595d5f" stroke="#595d5f"></path><path d="M485.6 123.3L415.4 124.3L471.6 187Z" fill="#252525" stroke="#252525"></path><path d="M699.3 188L636.1 139.3L622.1 210Z" fill="#363737" stroke="#363737"></path><path d="M622.1 210L636.1 139.3L567.8 128.3Z" fill="#939d9f" stroke="#939d9f"></path><path d="M689.3 319.3L701.3 252.7L612.1 268.7Z" fill="#595d5f" stroke="#595d5f"></path><path d="M352.2 320.3L352.2 398L428.4 340.3Z" fill="#474a4a" stroke="#474a4a"></path><path d="M422.4 402L415.4 476.7L493.6 468.7Z" fill="#474a4a" stroke="#474a4a"></path><path d="M285.9 332.3L352.2 398L352.2 320.3Z" fill="#e8f9fd" stroke="#e8f9fd"></path><path d="M625.1 458.7L682.3 393L609.1 387Z" fill="#474a4a" stroke="#474a4a"></path><path d="M689.3 319.3L749.5 323.3L701.3 252.7Z" fill="#595d5f" stroke="#595d5f"></path><path d="M354.2 122.3L332.2 186L424.4 202Z" fill="#a8b3b6" stroke="#a8b3b6"></path><path d="M560.8 460.7L625.1 458.7L560.8 403Z" fill="#6c7273" stroke="#6c7273"></path><path d="M631.1 534.3L625.1 458.7L560.8 460.7Z" fill="#939d9f" stroke="#939d9f"></path><path d="M701.3 252.7L699.3 188L622.1 210Z" fill="#363737" stroke="#363737"></path><path d="M345.2 454.7L415.4 476.7L422.4 402Z" fill="#a8b3b6" stroke="#a8b3b6"></path><path d="M493.6 468.7L544.8 540.3L560.8 460.7Z" fill="#363737" stroke="#363737"></path><path d="M560.8 62.7L474.6 70.7L485.6 123.3Z" fill="#e8f9fd" stroke="#e8f9fd"></path><path d="M485.6 123.3L474.6 70.7L415.4 124.3Z" fill="#595d5f" stroke="#595d5f"></path><path d="M415.4 124.3L354.2 122.3L424.4 202Z" fill="#7f8789" stroke="#7f8789"></path><path d="M560.8 62.7L485.6 123.3L567.8 128.3Z" fill="#e8f9fd" stroke="#e8f9fd"></path><path d="M407.4 51.7L354.2 122.3L415.4 124.3Z" fill="#d2e1e5" stroke="#d2e1e5"></path><path d="M627.1 72.7L567.8 128.3L636.1 139.3Z" fill="#252525" stroke="#252525"></path><path d="M627.1 72.7L560.8 62.7L567.8 128.3Z" fill="#d2e1e5" stroke="#d2e1e5"></path><path d="M281.9 264.7L285.9 332.3L333.2 279.7Z" fill="#595d5f" stroke="#595d5f"></path><path d="M333.2 279.7L285.9 332.3L352.2 320.3Z" fill="#939d9f" stroke="#939d9f"></path><path d="M352.2 398L345.2 454.7L422.4 402Z" fill="#595d5f" stroke="#595d5f"></path><path d="M277.9 202L281.9 264.7L332.2 186Z" fill="#d2e1e5" stroke="#d2e1e5"></path><path d="M332.2 186L281.9 264.7L333.2 279.7Z" fill="#7f8789" stroke="#7f8789"></path><path d="M699.3 188L677.3 120.3L636.1 139.3Z" fill="#6c7273" stroke="#6c7273"></path><path d="M415.4 476.7L488.6 520.3L493.6 468.7Z" fill="#d2e1e5" stroke="#d2e1e5"></path><path d="M281.9 401L345.2 454.7L352.2 398Z" fill="#363737" stroke="#363737"></path><path d="M415.4 476.7L420.4 536.3L488.6 520.3Z" fill="#d2e1e5" stroke="#d2e1e5"></path><path d="M747.5 409L749.5 323.3L682.3 393Z" fill="#252525" stroke="#252525"></path><path d="M682.3 393L749.5 323.3L689.3 319.3Z" fill="#7f8789" stroke="#7f8789"></path><path d="M701.3 252.7L748.5 187L699.3 188Z" fill="#7f8789" stroke="#7f8789"></path><path d="M699.3 188L748.5 187L677.3 120.3Z" fill="#939d9f" stroke="#939d9f"></path><path d="M677.3 120.3L627.1 72.7L636.1 139.3Z" fill="#595d5f" stroke="#595d5f"></path><path d="M290.9 137.3L277.9 202L332.2 186Z" fill="#6c7273" stroke="#6c7273"></path><path d="M221.7 323.3L281.9 401L285.9 332.3Z" fill="#6c7273" stroke="#6c7273"></path><path d="M423.4 0L407.4 51.7L474.6 70.7Z" fill="#e8f9fd" stroke="#e8f9fd"></path><path d="M474.6 70.7L407.4 51.7L415.4 124.3Z" fill="#474a4a" stroke="#474a4a"></path><path d="M354.2 122.3L290.9 137.3L332.2 186Z" fill="#363737" stroke="#363737"></path><path d="M285.9 332.3L281.9 401L352.2 398Z" fill="#d2e1e5" stroke="#d2e1e5"></path><path d="M221.7 323.3L285.9 332.3L281.9 264.7Z" fill="#bdcacd" stroke="#bdcacd"></path><path d="M488.6 520.3L544.8 540.3L493.6 468.7Z" fill="#474a4a" stroke="#474a4a"></path><path d="M769.5 270.7L748.5 187L701.3 252.7Z" fill="#474a4a" stroke="#474a4a"></path><path d="M677.3 120.3L706.3 60.7L627.1 72.7Z" fill="#939d9f" stroke="#939d9f"></path><path d="M749.5 323.3L769.5 270.7L701.3 252.7Z" fill="#595d5f" stroke="#595d5f"></path><path d="M684.3 522.3L701.3 467.7L625.1 458.7Z" fill="#bdcacd" stroke="#bdcacd"></path><path d="M625.1 458.7L701.3 467.7L682.3 393Z" fill="#252525" stroke="#252525"></path><path d="M749.5 323.3L818.8 328.3L769.5 270.7Z" fill="#d2e1e5" stroke="#d2e1e5"></path><path d="M343.2 75.7L290.9 137.3L354.2 122.3Z" fill="#bdcacd" stroke="#bdcacd"></path><path d="M332.2 523.3L420.4 536.3L415.4 476.7Z" fill="#6c7273" stroke="#6c7273"></path><path d="M488.6 520.3L474.6 600L544.8 540.3Z" fill="#bdcacd" stroke="#bdcacd"></path><path d="M332.2 523.3L415.4 476.7L345.2 454.7Z" fill="#595d5f" stroke="#595d5f"></path><path d="M701.3 467.7L747.5 409L682.3 393Z" fill="#6c7273" stroke="#6c7273"></path><path d="M407.4 51.7L343.2 75.7L354.2 122.3Z" fill="#bdcacd" stroke="#bdcacd"></path><path d="M544.8 540.3L631.1 534.3L560.8 460.7Z" fill="#d2e1e5" stroke="#d2e1e5"></path><path d="M560.8 62.7L497.6 0L474.6 70.7Z" fill="#a8b3b6" stroke="#a8b3b6"></path><path d="M407.4 51.7L355.2 0L343.2 75.7Z" fill="#252525" stroke="#252525"></path><path d="M549.8 0L497.6 0L560.8 62.7Z" fill="#a8b3b6" stroke="#a8b3b6"></path><path d="M624.1 0L549.8 0L560.8 62.7Z" fill="#595d5f" stroke="#595d5f"></path><path d="M212.7 259.7L281.9 264.7L277.9 202Z" fill="#e8f9fd" stroke="#e8f9fd"></path><path d="M212.7 259.7L221.7 323.3L281.9 264.7Z" fill="#474a4a" stroke="#474a4a"></path><path d="M631.1 534.3L684.3 522.3L625.1 458.7Z" fill="#252525" stroke="#252525"></path><path d="M701.3 467.7L766.5 455.7L747.5 409Z" fill="#bdcacd" stroke="#bdcacd"></path><path d="M276.9 474.7L345.2 454.7L281.9 401Z" fill="#e8f9fd" stroke="#e8f9fd"></path><path d="M276.9 474.7L332.2 523.3L345.2 454.7Z" fill="#bdcacd" stroke="#bdcacd"></path><path d="M772.5 119.3L706.3 60.7L677.3 120.3Z" fill="#7f8789" stroke="#7f8789"></path><path d="M627.1 72.7L624.1 0L560.8 62.7Z" fill="#7f8789" stroke="#7f8789"></path><path d="M497.6 0L423.4 0L474.6 70.7Z" fill="#a8b3b6" stroke="#a8b3b6"></path><path d="M209.7 194L212.7 259.7L277.9 202Z" fill="#595d5f" stroke="#595d5f"></path><path d="M212.7 407L276.9 474.7L281.9 401Z" fill="#252525" stroke="#252525"></path><path d="M750.5 528.3L766.5 455.7L701.3 467.7Z" fill="#363737" stroke="#363737"></path><path d="M747.5 409L818.8 328.3L749.5 323.3Z" fill="#bdcacd" stroke="#bdcacd"></path><path d="M685.3 0L624.1 0L627.1 72.7Z" fill="#939d9f" stroke="#939d9f"></path><path d="M748.5 187L772.5 119.3L677.3 120.3Z" fill="#7f8789" stroke="#7f8789"></path><path d="M821.8 145.3L772.5 119.3L748.5 187Z" fill="#595d5f" stroke="#595d5f"></path><path d="M840.8 195L748.5 187L769.5 270.7Z" fill="#595d5f" stroke="#595d5f"></path><path d="M822.8 407L818.8 328.3L747.5 409Z" fill="#474a4a" stroke="#474a4a"></path><path d="M290.9 137.3L209.7 194L277.9 202Z" fill="#595d5f" stroke="#595d5f"></path><path d="M197.7 146.3L209.7 194L290.9 137.3Z" fill="#d2e1e5" stroke="#d2e1e5"></path><path d="M265.9 62.7L290.9 137.3L343.2 75.7Z" fill="#7f8789" stroke="#7f8789"></path><path d="M417.4 600L474.6 600L420.4 536.3Z" fill="#d2e1e5" stroke="#d2e1e5"></path><path d="M420.4 536.3L474.6 600L488.6 520.3Z" fill="#939d9f" stroke="#939d9f"></path><path d="M544.8 540.3L561.8 600L631.1 534.3Z" fill="#939d9f" stroke="#939d9f"></path><path d="M631.1 534.3L689.3 600L684.3 522.3Z" fill="#939d9f" stroke="#939d9f"></path><path d="M474.6 600L561.8 600L544.8 540.3Z" fill="#a8b3b6" stroke="#a8b3b6"></path><path d="M145.5 387L212.7 407L221.7 323.3Z" fill="#bdcacd" stroke="#bdcacd"></path><path d="M221.7 323.3L212.7 407L281.9 401Z" fill="#363737" stroke="#363737"></path><path d="M152.5 318.3L221.7 323.3L212.7 259.7Z" fill="#bdcacd" stroke="#bdcacd"></path><path d="M423.4 0L355.2 0L407.4 51.7Z" fill="#252525" stroke="#252525"></path><path d="M346.2 600L417.4 600L420.4 536.3Z" fill="#252525" stroke="#252525"></path><path d="M346.2 600L420.4 536.3L332.2 523.3Z" fill="#a8b3b6" stroke="#a8b3b6"></path><path d="M772.5 119.3L749.5 60.7L706.3 60.7Z" fill="#595d5f" stroke="#595d5f"></path><path d="M706.3 60.7L685.3 0L627.1 72.7Z" fill="#6c7273" stroke="#6c7273"></path><path d="M273.9 0L265.9 62.7L343.2 75.7Z" fill="#a8b3b6" stroke="#a8b3b6"></path><path d="M818.8 328.3L841.8 257.7L769.5 270.7Z" fill="#a8b3b6" stroke="#a8b3b6"></path><path d="M772.5 119.3L817.8 63.7L749.5 60.7Z" fill="#595d5f" stroke="#595d5f"></path><path d="M766.5 455.7L822.8 407L747.5 409Z" fill="#363737" stroke="#363737"></path><path d="M900 322.3L900 264.7L841.8 257.7Z" fill="#595d5f" stroke="#595d5f"></path><path d="M755.5 0L685.3 0L706.3 60.7Z" fill="#363737" stroke="#363737"></path><path d="M561.8 600L629.1 600L631.1 534.3Z" fill="#6c7273" stroke="#6c7273"></path><path d="M684.3 522.3L750.5 528.3L701.3 467.7Z" fill="#d2e1e5" stroke="#d2e1e5"></path><path d="M766.5 455.7L825.8 463.7L822.8 407Z" fill="#a8b3b6" stroke="#a8b3b6"></path><path d="M689.3 600L750.5 528.3L684.3 522.3Z" fill="#474a4a" stroke="#474a4a"></path><path d="M840.8 195L821.8 145.3L748.5 187Z" fill="#474a4a" stroke="#474a4a"></path><path d="M841.8 257.7L840.8 195L769.5 270.7Z" fill="#a8b3b6" stroke="#a8b3b6"></path><path d="M265.9 62.7L197.7 146.3L290.9 137.3Z" fill="#7f8789" stroke="#7f8789"></path><path d="M150.5 251.7L152.5 318.3L212.7 259.7Z" fill="#bdcacd" stroke="#bdcacd"></path><path d="M212.7 407L221.7 474.7L276.9 474.7Z" fill="#474a4a" stroke="#474a4a"></path><path d="M276.9 474.7L263.9 545.3L332.2 523.3Z" fill="#363737" stroke="#363737"></path><path d="M263.9 545.3L346.2 600L332.2 523.3Z" fill="#474a4a" stroke="#474a4a"></path><path d="M221.7 474.7L263.9 545.3L276.9 474.7Z" fill="#7f8789" stroke="#7f8789"></path><path d="M150.5 251.7L212.7 259.7L209.7 194Z" fill="#7f8789" stroke="#7f8789"></path><path d="M212.7 407L151.5 477.7L221.7 474.7Z" fill="#252525" stroke="#252525"></path><path d="M629.1 600L689.3 600L631.1 534.3Z" fill="#363737" stroke="#363737"></path><path d="M140.5 185L150.5 251.7L209.7 194Z" fill="#939d9f" stroke="#939d9f"></path><path d="M816.8 547.3L825.8 463.7L750.5 528.3Z" fill="#595d5f" stroke="#595d5f"></path><path d="M750.5 528.3L825.8 463.7L766.5 455.7Z" fill="#bdcacd" stroke="#bdcacd"></path><path d="M900 322.3L841.8 257.7L818.8 328.3Z" fill="#363737" stroke="#363737"></path><path d="M355.2 0L273.9 0L343.2 75.7Z" fill="#bdcacd" stroke="#bdcacd"></path><path d="M265.9 62.7L192.7 65.7L197.7 146.3Z" fill="#939d9f" stroke="#939d9f"></path><path d="M817.8 63.7L755.5 0L749.5 60.7Z" fill="#939d9f" stroke="#939d9f"></path><path d="M749.5 60.7L755.5 0L706.3 60.7Z" fill="#939d9f" stroke="#939d9f"></path><path d="M55.2 327.3L145.5 387L152.5 318.3Z" fill="#d2e1e5" stroke="#d2e1e5"></path><path d="M152.5 318.3L145.5 387L221.7 323.3Z" fill="#252525" stroke="#252525"></path><path d="M201.7 541.3L261.9 600L263.9 545.3Z" fill="#e8f9fd" stroke="#e8f9fd"></path><path d="M821.8 145.3L817.8 63.7L772.5 119.3Z" fill="#363737" stroke="#363737"></path><path d="M900 141.3L817.8 63.7L821.8 145.3Z" fill="#a8b3b6" stroke="#a8b3b6"></path><path d="M197.7 146.3L140.5 185L209.7 194Z" fill="#e8f9fd" stroke="#e8f9fd"></path><path d="M150.5 251.7L59.2 266.7L152.5 318.3Z" fill="#939d9f" stroke="#939d9f"></path><path d="M136.5 135.3L140.5 185L197.7 146.3Z" fill="#363737" stroke="#363737"></path><path d="M206.7 0L192.7 65.7L265.9 62.7Z" fill="#bdcacd" stroke="#bdcacd"></path><path d="M841.8 257.7L900 210L840.8 195Z" fill="#a8b3b6" stroke="#a8b3b6"></path><path d="M840.8 195L900 141.3L821.8 145.3Z" fill="#252525" stroke="#252525"></path><path d="M900 322.3L818.8 328.3L822.8 407Z" fill="#363737" stroke="#363737"></path><path d="M900 411L900 322.3L822.8 407Z" fill="#6c7273" stroke="#6c7273"></path><path d="M900 264.7L900 210L841.8 257.7Z" fill="#595d5f" stroke="#595d5f"></path><path d="M201.7 541.3L263.9 545.3L221.7 474.7Z" fill="#bdcacd" stroke="#bdcacd"></path><path d="M263.9 545.3L261.9 600L346.2 600Z" fill="#7f8789" stroke="#7f8789"></path><path d="M151.5 477.7L201.7 541.3L221.7 474.7Z" fill="#363737" stroke="#363737"></path><path d="M765.5 600L816.8 547.3L750.5 528.3Z" fill="#bdcacd" stroke="#bdcacd"></path><path d="M825.8 463.7L900 411L822.8 407Z" fill="#252525" stroke="#252525"></path><path d="M192.7 65.7L136.5 135.3L197.7 146.3Z" fill="#363737" stroke="#363737"></path><path d="M140.5 185L83.2 192L150.5 251.7Z" fill="#e8f9fd" stroke="#e8f9fd"></path><path d="M689.3 600L765.5 600L750.5 528.3Z" fill="#474a4a" stroke="#474a4a"></path><path d="M145.5 387L151.5 477.7L212.7 407Z" fill="#363737" stroke="#363737"></path><path d="M900 475.7L900 411L825.8 463.7Z" fill="#bdcacd" stroke="#bdcacd"></path><path d="M900 210L900 141.3L840.8 195Z" fill="#595d5f" stroke="#595d5f"></path><path d="M817.8 63.7L826.8 0L755.5 0Z" fill="#bdcacd" stroke="#bdcacd"></path><path d="M273.9 0L206.7 0L265.9 62.7Z" fill="#6c7273" stroke="#6c7273"></path><path d="M192.7 65.7L123.5 51.7L136.5 135.3Z" fill="#d2e1e5" stroke="#d2e1e5"></path><path d="M900 60.7L826.8 0L817.8 63.7Z" fill="#a8b3b6" stroke="#a8b3b6"></path><path d="M900 532.3L900 475.7L825.8 463.7Z" fill="#6c7273" stroke="#6c7273"></path><path d="M900 532.3L825.8 463.7L816.8 547.3Z" fill="#7f8789" stroke="#7f8789"></path><path d="M68.2 142.3L83.2 192L136.5 135.3Z" fill="#a8b3b6" stroke="#a8b3b6"></path><path d="M136.5 135.3L83.2 192L140.5 185Z" fill="#595d5f" stroke="#595d5f"></path><path d="M68.2 537.3L145.5 543.3L151.5 477.7Z" fill="#7f8789" stroke="#7f8789"></path><path d="M765.5 600L820.8 600L816.8 547.3Z" fill="#252525" stroke="#252525"></path><path d="M145.5 543.3L199.7 600L201.7 541.3Z" fill="#595d5f" stroke="#595d5f"></path><path d="M201.7 541.3L199.7 600L261.9 600Z" fill="#6c7273" stroke="#6c7273"></path><path d="M83.2 462.7L151.5 477.7L145.5 387Z" fill="#bdcacd" stroke="#bdcacd"></path><path d="M151.5 477.7L145.5 543.3L201.7 541.3Z" fill="#939d9f" stroke="#939d9f"></path><path d="M900 141.3L900 60.7L817.8 63.7Z" fill="#363737" stroke="#363737"></path><path d="M83.2 192L59.2 266.7L150.5 251.7Z" fill="#bdcacd" stroke="#bdcacd"></path><path d="M123.5 0L123.5 51.7L192.7 65.7Z" fill="#6c7273" stroke="#6c7273"></path><path d="M0 198L0 268.7L59.2 266.7Z" fill="#363737" stroke="#363737"></path><path d="M59.2 266.7L55.2 327.3L152.5 318.3Z" fill="#a8b3b6" stroke="#a8b3b6"></path><path d="M900 600L900 532.3L816.8 547.3Z" fill="#474a4a" stroke="#474a4a"></path><path d="M55.2 327.3L64.2 406L145.5 387Z" fill="#363737" stroke="#363737"></path><path d="M64.2 406L83.2 462.7L145.5 387Z" fill="#7f8789" stroke="#7f8789"></path><path d="M73.2 63.7L68.2 142.3L136.5 135.3Z" fill="#bdcacd" stroke="#bdcacd"></path><path d="M206.7 0L123.5 0L192.7 65.7Z" fill="#595d5f" stroke="#595d5f"></path><path d="M123.5 51.7L73.2 63.7L136.5 135.3Z" fill="#595d5f" stroke="#595d5f"></path><path d="M900 60.7L900 0L826.8 0Z" fill="#939d9f" stroke="#939d9f"></path><path d="M76.2 0L73.2 63.7L123.5 51.7Z" fill="#474a4a" stroke="#474a4a"></path><path d="M0 198L59.2 266.7L83.2 192Z" fill="#939d9f" stroke="#939d9f"></path><path d="M68.2 537.3L132.5 600L145.5 543.3Z" fill="#bdcacd" stroke="#bdcacd"></path><path d="M145.5 543.3L132.5 600L199.7 600Z" fill="#474a4a" stroke="#474a4a"></path><path d="M820.8 600L900 600L816.8 547.3Z" fill="#363737" stroke="#363737"></path><path d="M83.2 462.7L68.2 537.3L151.5 477.7Z" fill="#474a4a" stroke="#474a4a"></path><path d="M0 480.7L68.2 537.3L83.2 462.7Z" fill="#595d5f" stroke="#595d5f"></path><path d="M0 480.7L83.2 462.7L64.2 406Z" fill="#474a4a" stroke="#474a4a"></path><path d="M0 198L83.2 192L68.2 142.3Z" fill="#595d5f" stroke="#595d5f"></path><path d="M59.2 266.7L0 268.7L55.2 327.3Z" fill="#e8f9fd" stroke="#e8f9fd"></path><path d="M55.2 327.3L0 402L64.2 406Z" fill="#363737" stroke="#363737"></path><path d="M0 268.7L0 330.3L55.2 327.3Z" fill="#939d9f" stroke="#939d9f"></path><path d="M0 123.3L0 198L68.2 142.3Z" fill="#bdcacd" stroke="#bdcacd"></path><path d="M123.5 0L76.2 0L123.5 51.7Z" fill="#a8b3b6" stroke="#a8b3b6"></path><path d="M73.2 63.7L0 123.3L68.2 142.3Z" fill="#6c7273" stroke="#6c7273"></path><path d="M0 330.3L0 402L55.2 327.3Z" fill="#474a4a" stroke="#474a4a"></path><path d="M0 76.7L0 123.3L73.2 63.7Z" fill="#bdcacd" stroke="#bdcacd"></path><path d="M0 402L0 480.7L64.2 406Z" fill="#939d9f" stroke="#939d9f"></path><path d="M68.2 537.3L56.2 600L132.5 600Z" fill="#363737" stroke="#363737"></path><path d="M0 0L0 76.7L73.2 63.7Z" fill="#d2e1e5" stroke="#d2e1e5"></path><path d="M0 600L56.2 600L68.2 537.3Z" fill="#595d5f" stroke="#595d5f"></path><path d="M0 480.7L0 522.3L68.2 537.3Z" fill="#bdcacd" stroke="#bdcacd"></path><path d="M76.2 0L0 0L73.2 63.7Z" fill="#d2e1e5" stroke="#d2e1e5"></path><path d="M0 522.3L0 600L68.2 537.3Z" fill="#363737" stroke="#363737"></path></g></svg>