<svg xmlns="http://www.w3.org/2000/svg" xmlns:xlink="http://www.w3.org/1999/xlink" width="500" zoomAndPan="magnify" viewBox="0 0 375 374.999991" height="500" preserveAspectRatio="xMidYMid meet" version="1.0"><defs><g/><clipPath id="a00c3f8e15"><path d="M 98.402344 94.527344 L 260 94.527344 L 260 162.027344 L 98.402344 162.027344 Z M 98.402344 94.527344 " clip-rule="nonzero"/></clipPath><clipPath id="fad0a6b376"><path d="M 147 111 L 275.402344 111 L 275.402344 162.027344 L 147 162.027344 Z M 147 111 " clip-rule="nonzero"/></clipPath><clipPath id="3a9c8fa9b1"><path d="M 99.410156 213.128906 L 261 213.128906 L 261 280.464844 L 99.410156 280.464844 Z M 99.410156 213.128906 " clip-rule="nonzero"/></clipPath><clipPath id="524c977834"><path d="M 148 213.128906 L 276.410156 213.128906 L 276.410156 264 L 148 264 Z M 148 213.128906 " clip-rule="nonzero"/></clipPath><clipPath id="bccd471c33"><path d="M 126 196 L 217 196 L 217 262.5 L 126 262.5 Z M 126 196 " clip-rule="nonzero"/></clipPath><clipPath id="e6c42ca8e4"><path d="M 128 112.5 L 275.964844 112.5 L 275.964844 261 L 128 261 Z M 128 112.5 " clip-rule="nonzero"/></clipPath></defs><g clip-path="url(#a00c3f8e15)"><path fill="#da0037" d="M 200.1875 265.855469 C 155.300781 265.855469 118.914062 229.464844 118.914062 184.582031 C 118.914062 139.695312 155.300781 103.308594 200.1875 103.308594 C 223.429688 103.308594 244.386719 113.066406 259.203125 128.703125 C 242.703125 107.882812 217.199219 94.523438 188.574219 94.523438 C 138.839844 94.523438 98.519531 134.84375 98.519531 184.582031 C 98.519531 234.316406 138.839844 274.636719 188.574219 274.636719 C 217.199219 274.636719 242.703125 261.277344 259.203125 240.457031 C 244.386719 256.09375 223.429688 265.855469 200.1875 265.855469 " fill-opacity="1" fill-rule="nonzero"/></g><g clip-path="url(#fad0a6b376)"><path fill="#262626" d="M 202.558594 111.652344 C 180.320312 111.652344 160.410156 121.605469 147.035156 137.296875 C 160.070312 125.097656 177.589844 117.628906 196.851562 117.628906 C 237.128906 117.628906 269.785156 150.277344 269.785156 190.554688 C 269.785156 208.59375 263.230469 225.101562 252.378906 237.832031 C 266.597656 224.523438 275.484375 205.589844 275.484375 184.582031 C 275.484375 144.300781 242.835938 111.652344 202.558594 111.652344 " fill-opacity="1" fill-rule="nonzero"/></g><g clip-path="url(#3a9c8fa9b1)"><path fill="#3a3939" d="M 201.191406 109.136719 C 156.308594 109.136719 119.921875 145.527344 119.921875 190.410156 C 119.921875 235.296875 156.308594 271.6875 201.191406 271.6875 C 224.4375 271.6875 245.394531 261.925781 260.210938 246.289062 C 243.710938 267.109375 218.207031 280.46875 189.582031 280.46875 C 139.847656 280.46875 99.527344 240.148438 99.527344 190.410156 C 99.527344 140.675781 139.847656 100.355469 189.582031 100.355469 C 218.207031 100.355469 243.710938 113.714844 260.210938 134.535156 C 245.394531 118.898438 224.4375 109.136719 201.191406 109.136719 " fill-opacity="1" fill-rule="nonzero"/></g><g clip-path="url(#524c977834)"><path fill="#262626" d="M 203.566406 263.339844 C 181.328125 263.339844 161.417969 253.390625 148.042969 237.695312 C 161.078125 249.894531 178.597656 257.363281 197.859375 257.363281 C 238.136719 257.363281 270.792969 224.714844 270.792969 184.4375 C 270.792969 166.398438 264.238281 149.890625 253.386719 137.160156 C 267.605469 150.46875 276.492188 169.402344 276.492188 190.410156 C 276.492188 230.691406 243.84375 263.339844 203.566406 263.339844 " fill-opacity="1" fill-rule="nonzero"/></g><g clip-path="url(#bccd471c33)"><path fill="#404041" d="M 157.414062 213.660156 C 144.851562 208.402344 134.523438 202.664062 126.066406 196.65625 C 126.351562 199.007812 126.746094 201.332031 127.246094 203.613281 C 135.5 209.023438 144.925781 213.953125 155.449219 218.355469 C 175.460938 226.722656 188.878906 236.898438 197.203125 244.820312 C 175.082031 229.3125 148.597656 222.585938 139.417969 219.371094 C 136.652344 218.402344 133.925781 217.410156 131.265625 216.359375 C 142.570312 243.453125 169.316406 262.496094 200.507812 262.496094 C 205.980469 262.496094 211.316406 261.910156 216.457031 260.796875 C 214.320312 256.742188 199.570312 231.289062 157.414062 213.660156 " fill-opacity="1" fill-rule="nonzero"/></g><g clip-path="url(#e6c42ca8e4)"><path fill="#da0037" d="M 200.507812 112.503906 C 171.480469 112.503906 146.304688 128.996094 133.839844 153.121094 C 140.988281 160.765625 150.015625 168.6875 161.320312 176.800781 C 193.597656 199.957031 205.378906 222.582031 209.191406 232.179688 C 202.03125 221.082031 188.324219 204.855469 163.277344 189.382812 C 148.90625 180.503906 137.925781 171.605469 129.636719 162.90625 C 129.070312 164.542969 128.554688 166.207031 128.097656 167.894531 C 141.671875 181.042969 157.839844 191.765625 172.835938 202.929688 C 210.28125 230.804688 215.957031 256.554688 216.652344 260.753906 C 217.769531 260.507812 218.878906 260.238281 219.980469 259.945312 C 220.441406 233.125 202.25 198.175781 164.503906 174.832031 C 164.515625 174.828125 164.527344 174.828125 164.539062 174.824219 C 184.113281 183.621094 196.816406 178.59375 196.816406 178.59375 C 187.1875 179.679688 175.027344 174.695312 171.40625 168.660156 C 182.027344 173.722656 195.566406 159.230469 214.363281 163.445312 C 214.363281 163.445312 207.234375 159.550781 193.980469 161.246094 C 184.121094 154.09375 179.507812 142.347656 179.507812 142.347656 C 190.367188 149.566406 206.679688 152.257812 216.269531 151.617188 C 232.304688 150.546875 244.925781 159.601562 249.128906 167.824219 C 254.453125 178.242188 249.734375 177.785156 247.675781 176.8125 C 226.105469 166.628906 228.796875 179.527344 243.582031 178.453125 C 270.222656 176.519531 266.25 201.289062 266.25 201.289062 C 255.789062 179.929688 225.035156 198.726562 220.585938 218.109375 C 217.984375 229.449219 224.671875 234.808594 224.523438 249.371094 C 224.488281 252.855469 224.074219 256.0625 223.46875 258.914062 C 253.65625 249.21875 275.503906 220.910156 275.503906 187.5 C 275.503906 146.082031 241.925781 112.503906 200.507812 112.503906 " fill-opacity="1" fill-rule="nonzero"/></g><g fill="#f8b31a" fill-opacity="1"><g transform="translate(116.980729, 210.311944)"><g><path d="M -8.578125 -1.734375 L -8.578125 -0.078125 L -11.75 -0.78125 L -11.75 -4.40625 L -12.15625 -4.515625 L -12.15625 -7.265625 L -8.578125 -6.46875 L -8.578125 -4.90625 L 0 -4.90625 L 0 -1.734375 Z M -8.578125 -1.734375 "/></g></g></g><g fill="#f8b31a" fill-opacity="1"><g transform="translate(116.980729, 203.103844)"><g><path d="M -11.9375 -5.25 C -11.9375 -6.09375 -11.707031 -6.878906 -11.25 -7.609375 C -10.800781 -8.335938 -10.171875 -8.925781 -9.359375 -9.375 C -8.910156 -9.632812 -8.382812 -9.832031 -7.78125 -9.96875 C -7.1875 -10.101562 -6.554688 -10.171875 -5.890625 -10.171875 C -5.003906 -10.171875 -4.195312 -10.054688 -3.46875 -9.828125 C -2.75 -9.609375 -2.128906 -9.28125 -1.609375 -8.84375 C -1.023438 -8.375 -0.582031 -7.828125 -0.28125 -7.203125 C 0.0195312 -6.585938 0.171875 -5.929688 0.171875 -5.234375 C 0.171875 -4.148438 -0.191406 -3.191406 -0.921875 -2.359375 C -2.046875 -1.023438 -3.726562 -0.359375 -5.96875 -0.359375 C -7.675781 -0.359375 -9.070312 -0.796875 -10.15625 -1.671875 C -10.71875 -2.140625 -11.15625 -2.6875 -11.46875 -3.3125 C -11.78125 -3.9375 -11.9375 -4.582031 -11.9375 -5.25 Z M -8.703125 -5.25 C -8.703125 -4.769531 -8.445312 -4.390625 -7.9375 -4.109375 C -7.4375 -3.835938 -6.75 -3.703125 -5.875 -3.703125 C -4.945312 -3.703125 -4.222656 -3.835938 -3.703125 -4.109375 C -3.191406 -4.390625 -2.9375 -4.773438 -2.9375 -5.265625 C -2.9375 -5.765625 -3.191406 -6.148438 -3.703125 -6.421875 C -4.222656 -6.691406 -4.925781 -6.828125 -5.8125 -6.828125 C -6.726562 -6.828125 -7.4375 -6.6875 -7.9375 -6.40625 C -8.445312 -6.132812 -8.703125 -5.75 -8.703125 -5.25 Z M -8.703125 -5.25 "/></g></g></g><g fill="#f8b31a" fill-opacity="1"><g transform="translate(116.980729, 192.353385)"><g><path d="M -8.578125 -0.796875 L -8.578125 -0.09375 L -11.75 -0.796875 L -11.75 -3.96875 L -7.28125 -3.96875 L -11.75 -5.765625 L -11.75 -9 L -6.046875 -6.5625 L 0 -9.34375 L 0 -5.90625 L -4.5 -3.96875 L 0 -3.96875 L 0 -0.796875 Z M -8.578125 -0.796875 "/></g></g></g><g fill="#f8b31a" fill-opacity="1"><g transform="translate(116.980729, 183.048065)"><g><path d="M -8.578125 -0.796875 L -8.578125 -0.09375 L -11.75 -0.796875 L -11.75 -4.8125 L -12.15625 -4.8125 L -12.15625 -7.609375 L -8.578125 -6.828125 L -8.578125 -3.96875 L -7.171875 -3.96875 L -7.171875 -7.375 L -4.578125 -6.828125 L -4.578125 -3.96875 L -3.171875 -3.96875 L -3.171875 -7.375 L 0 -6.65625 L 0 -0.796875 Z M -8.578125 -0.796875 "/></g></g></g><g fill="#f8b31a" fill-opacity="1"><g transform="translate(116.980729, 174.817791)"><g><path d="M -8.578125 -0.796875 L -8.578125 -0.09375 L -11.75 -0.796875 L -11.75 -3.96875 L -7.296875 -6.15625 L -11.75 -6.15625 L -11.75 -9.328125 L 0 -9.328125 L 0 -6.53125 L -5.046875 -3.96875 L 0 -3.96875 L 0 -0.796875 Z M -8.578125 -0.796875 "/></g></g></g></svg>